<svg width="17" height="17" viewBox="0 0 17 17" fill="none" xmlns="http://www.w3.org/2000/svg">
<path d="M14.0241 16.5901H2.97589C1.41779 16.5901 0.15 15.3223 0.15 13.7642V5.8819C0.15 4.3238 1.41779 3.05601 2.97589 3.05601H14.0241C15.5822 3.05601 16.85 4.3238 16.85 5.8819V13.7642C16.85 15.3223 15.5822 16.5901 14.0241 16.5901ZM2.97589 4.48881C2.20768 4.48881 1.58281 5.11369 1.58281 5.8819V13.7642C1.58281 14.5324 2.20768 15.1573 2.97589 15.1573H14.0241C14.7923 15.1573 15.4172 14.5324 15.4172 13.7642V5.8819C15.4172 5.11369 14.7923 4.48881 14.0241 4.48881H2.97589Z" fill="#3B3B3B" stroke="#F2F7FF" stroke-width="0.3"/>
<path d="M16.0754 8.99174H0.866404C0.47086 8.99174 0.15 8.67088 0.15 8.27534C0.15 7.8798 0.47086 7.55894 0.866404 7.55894H16.0754C16.471 7.55894 16.7918 7.8798 16.7918 8.27534C16.7918 8.67092 16.4712 8.99174 16.0754 8.99174Z" fill="#3B3B3B" stroke="#F2F7FF" stroke-width="0.3"/>
<path d="M10.084 1.76796V1.61796H9.93396H6.95986H6.80986V1.76796V3.77158C6.80986 4.16712 6.489 4.48798 6.09345 4.48798C5.69791 4.48798 5.37705 4.16712 5.37705 3.77158V1.75872C5.37705 0.891068 6.08323 0.185156 6.95061 0.185156H9.94321C10.8109 0.185156 11.5168 0.891333 11.5168 1.75872V3.77158C11.5168 4.16738 11.1959 4.48798 10.8004 4.48798C10.4048 4.48798 10.084 4.16712 10.084 3.77158V1.76796Z" fill="#3B3B3B" stroke="#F2F7FF" stroke-width="0.3"/>
<path d="M11.8977 10.5402C11.5021 10.5402 11.1813 10.2194 11.1813 9.82383V8.27534C11.1813 7.8798 11.5021 7.55894 11.8977 7.55894C12.2932 7.55894 12.6141 7.8798 12.6141 8.27534V9.82353C12.6141 10.2194 12.2932 10.5402 11.8977 10.5402Z" fill="#3B3B3B" stroke="#F2F7FF" stroke-width="0.3"/>
<path d="M5.12641 10.5402C4.73087 10.5402 4.41001 10.2194 4.41001 9.82383V8.27534C4.41001 7.8798 4.73087 7.55894 5.12641 7.55894C5.52196 7.55894 5.84282 7.8798 5.84282 8.27534V9.82353C5.84282 10.2194 5.52192 10.5402 5.12641 10.5402Z" fill="#3B3B3B" stroke="#F2F7FF" stroke-width="0.3"/>
</svg>
